<?xml version="1.0" encoding="UTF-8"?>
<svg id="Camada_1" xmlns="http://www.w3.org/2000/svg" version="1.1" viewBox="0 0 379.4 98.5">
  <!-- Generator: Adobe Illustrator 30.2.1, SVG Export Plug-In . SVG Version: 2.1.1 Build 1)  -->
  <defs>
    <style>
      .st0 {
        fill: #1a2542;
      }
    </style>
  </defs>
  <path class="st0" d="M103.81,76.42L35.5,5.04c-2.84-3.35-6.7-5.04-11.49-5.04h-10.8C4.56,0,0,4.37,0,12.63v85.87h22.35V22.22l68.31,71.1c2.65,3.44,6.51,5.18,11.49,5.18h10.8c8.64,0,13.2-4.42,13.2-12.78V0h-22.35v76.42h.01Z"/>
  <polygon class="st0" points="161.49 56.39 218.94 56.39 218.94 39.41 137.49 39.41 137.49 98.5 250.3 98.5 250.3 79.56 161.49 79.56 161.49 56.39"/>
  <rect class="st0" x="137.49" width="112.81" height="19.24"/>
  <path class="st0" d="M352.25,0h-64.5c-18.02,0-27.15,8.35-27.15,24.81v48.88c0,16.46,9.14,24.81,27.15,24.81h64.5c18.02,0,27.15-8.35,27.15-24.81V24.81c0-16.46-9.13-24.81-27.15-24.81ZM354.65,28.27v41.96c0,6.14-2.92,8.88-9.45,8.88h-50.4c-6.54,0-9.45-2.74-9.45-8.88V28.27c0-6.24,2.91-9.03,9.45-9.03h50.4c6.54,0,9.45,2.78,9.45,9.03Z"/>
</svg>